<svg width="92" height="35" viewBox="0 0 92 35" fill="none" xmlns="http://www.w3.org/2000/svg">
<g opacity="0.5">
<path d="M89.6683 0.341803C88.6501 1.32626 87.5347 2.47915 86.5165 3.46361L87.9115 4.94283C88.9296 3.95838 90.2138 2.90285 91.3292 1.74994L89.6683 0.341803ZM83.0274 6.39066C81.8406 7.27773 80.6537 8.16479 79.4669 9.05186L80.5959 10.6022C81.7828 9.71509 82.9696 8.82802 84.2537 7.77249L83.0274 6.39066ZM75.7377 11.6157C74.5508 12.5027 73.1953 13.2924 71.9371 13.9136L72.9688 15.6324C74.3243 14.8427 75.5112 13.9557 76.8667 13.166L75.7377 11.6157ZM68.1365 16.2116C66.8782 16.8328 65.5227 17.6225 64.0957 18.1464L64.8616 19.9362C66.1198 19.315 67.644 18.6227 68.9995 17.833L68.1365 16.2116ZM60.055 20.0811C58.6281 20.6049 57.2012 21.1288 55.9429 21.75L56.6115 23.7083C58.0384 23.1845 59.4654 22.6606 60.8923 22.1368L60.055 20.0811ZM51.5907 23.0557C50.1638 23.5795 48.6655 23.8375 47.3358 24.1929L47.8357 26.0538C49.334 25.7958 50.761 25.272 52.1879 24.7482L51.5907 23.0557ZM42.9122 25.2327C41.4138 25.4907 39.9155 25.7487 38.4172 26.0067L38.6511 27.9387C40.1494 27.6807 41.6478 27.4227 43.1461 27.1647L42.9122 25.2327ZM34.0194 26.6123C32.521 26.8703 31.12 26.9598 29.5502 26.952L29.7842 28.8839C31.3539 28.8918 32.8523 28.6338 34.2533 28.5443L34.0194 26.6123ZM25.1783 27.1232C23.6085 27.1153 22.2074 27.2049 20.7349 27.0286L20.703 29.0316C22.2727 29.0395 23.7452 29.2158 25.1463 29.1262L25.1783 27.1232ZM16.1229 26.8366C14.6505 26.6603 13.178 26.4839 11.7055 26.3076L11.5048 28.2133C12.9773 28.3896 14.4498 28.5659 16.091 28.8396L16.1229 26.8366ZM7.21656 25.5129C5.74406 25.3366 4.20016 24.8944 2.82493 24.5497L2.35832 26.5264C3.90223 26.9685 5.37475 27.1449 6.74998 27.4896L7.21656 25.5129Z" fill="#DC2F2F"/>
<path d="M10.9125 19.1114L11.7755 20.7328L3.54517 25.6393L8.8271 33.6303L7.27704 34.7569L0.528766 25.0209L10.9125 19.1114Z" fill="#DC2F2F"/>
</g>
</svg>
