<svg width="37" height="22" viewBox="0 0 37 22" fill="none" xmlns="http://www.w3.org/2000/svg">
<path d="M10.5613 18.285H6.71704C6.55117 18.285 6.39209 18.2196 6.2748 18.1031C6.15751 17.9866 6.09162 17.8286 6.09162 17.6638C6.09162 17.499 6.15751 17.341 6.2748 17.2245C6.39209 17.108 6.55117 17.0426 6.71704 17.0426H10.5613C10.7272 17.0426 10.8863 17.108 11.0035 17.2245C11.1208 17.341 11.1867 17.499 11.1867 17.6638C11.1867 17.8286 11.1208 17.9866 11.0035 18.1031C10.8863 18.2196 10.7272 18.285 10.5613 18.285Z" fill="#DC2F2F"/>
<path d="M26.1593 18.285H17.762C17.5961 18.285 17.437 18.2196 17.3198 18.1031C17.2025 17.9866 17.1366 17.8286 17.1366 17.6638C17.1366 17.499 17.2025 17.341 17.3198 17.2245C17.437 17.108 17.5961 17.0426 17.762 17.0426H26.1593C26.3252 17.0426 26.4843 17.108 26.6016 17.2245C26.7189 17.341 26.7848 17.499 26.7848 17.6638C26.7848 17.8286 26.7189 17.9866 26.6016 18.1031C26.4843 18.2196 26.3252 18.285 26.1593 18.285Z" fill="#DC2F2F"/>
<path d="M36.3621 18.285H33.3517C33.1858 18.285 33.0268 18.2196 32.9095 18.1031C32.7922 17.9866 32.7263 17.8286 32.7263 17.6638C32.7263 17.499 32.7922 17.341 32.9095 17.2245C33.0268 17.108 33.1858 17.0426 33.3517 17.0426H35.7492V12.2301C35.7498 11.919 35.6742 11.6123 35.5289 11.3367C35.3837 11.0611 35.173 10.8247 34.9153 10.648L32.9973 9.35997C32.9302 9.31267 32.8723 9.25374 32.8263 9.18602L28.2733 2.1992C28.0839 1.90445 27.8224 1.66213 27.5133 1.49484C27.2042 1.32755 26.8574 1.24074 26.5054 1.2425H9.06446C8.89859 1.2425 8.73951 1.17705 8.62222 1.06055C8.50493 0.944043 8.43904 0.78603 8.43904 0.621268C8.43904 0.456506 8.50493 0.298493 8.62222 0.181989C8.73951 0.0654845 8.89859 3.3649e-05 9.06446 3.3649e-05H26.5054C27.0663 -0.00182254 27.6187 0.136863 28.1113 0.403263C28.604 0.669662 29.0211 1.05517 29.324 1.52413L33.8062 8.40326L35.5991 9.62088C36.0291 9.90933 36.3816 10.2979 36.6257 10.7527C36.8699 11.2074 36.9984 11.7147 37 12.2301V17.6638C37 17.7464 36.9834 17.8282 36.9512 17.9044C36.919 17.9806 36.8718 18.0497 36.8124 18.1075C36.753 18.1654 36.6826 18.2109 36.6053 18.2414C36.5279 18.2718 36.4452 18.2867 36.3621 18.285Z" fill="#DC2F2F"/>
<path d="M14.1596 22C13.3234 22 12.506 21.7537 11.8107 21.2923C11.1154 20.8308 10.5735 20.1749 10.2535 19.4076C9.93354 18.6402 9.84982 17.7958 10.0129 16.9812C10.1761 16.1665 10.5787 15.4183 11.17 14.8309C11.7613 14.2436 12.5146 13.8437 13.3348 13.6816C14.1549 13.5196 15.005 13.6027 15.7775 13.9206C16.55 14.2385 17.2103 14.7767 17.6749 15.4673C18.1395 16.1579 18.3874 16.9699 18.3874 17.8005C18.3874 18.9143 17.942 19.9824 17.1491 20.77C16.3562 21.5576 15.2809 22 14.1596 22ZM14.1596 14.8434C13.5708 14.8434 12.9952 15.0168 12.5056 15.3418C12.0161 15.6667 11.6345 16.1285 11.4092 16.6688C11.1838 17.2092 11.1249 17.8038 11.2398 18.3774C11.3546 18.951 11.6382 19.4779 12.0545 19.8914C12.4708 20.305 13.0013 20.5866 13.5788 20.7007C14.1563 20.8148 14.7548 20.7563 15.2988 20.5325C15.8428 20.3086 16.3077 19.9296 16.6349 19.4433C16.962 18.957 17.1366 18.3853 17.1366 17.8005C17.1355 17.0165 16.8215 16.265 16.2634 15.7107C15.7054 15.1564 14.9488 14.8445 14.1596 14.8434Z" fill="#DC2F2F"/>
<path d="M29.7493 22C28.9131 22 28.0957 21.7537 27.4004 21.2923C26.7051 20.8308 26.1632 20.1749 25.8432 19.4076C25.5232 18.6402 25.4395 17.7958 25.6026 16.9812C25.7658 16.1665 26.1684 15.4183 26.7597 14.8309C27.351 14.2436 28.1043 13.8437 28.9245 13.6816C29.7446 13.5196 30.5947 13.6027 31.3672 13.9206C32.1397 14.2385 32.8 14.7767 33.2646 15.4673C33.7292 16.1579 33.9771 16.9699 33.9771 17.8005C33.976 18.9139 33.5302 19.9815 32.7376 20.7688C31.945 21.5561 30.8702 21.9989 29.7493 22ZM29.7493 14.8434C29.1605 14.8434 28.5849 15.0168 28.0953 15.3418C27.6058 15.6667 27.2242 16.1285 26.9989 16.6688C26.7735 17.2092 26.7146 17.8038 26.8295 18.3774C26.9443 18.951 27.2279 19.4779 27.6442 19.8914C28.0605 20.305 28.591 20.5866 29.1685 20.7007C29.746 20.8148 30.3445 20.7563 30.8885 20.5325C31.4325 20.3086 31.8974 19.9296 32.2246 19.4433C32.5517 18.957 32.7263 18.3853 32.7263 17.8005C32.7241 17.0169 32.4097 16.266 31.8519 15.7119C31.2941 15.1578 30.5381 14.8456 29.7493 14.8434Z" fill="#DC2F2F"/>
<path d="M33.3517 9.46765H23.2073C23.0415 9.46765 22.8824 9.40219 22.7651 9.28569C22.6478 9.16919 22.5819 9.01117 22.5819 8.84641V0.621267C22.5819 0.456506 22.6478 0.298492 22.7651 0.181988C22.8824 0.0654839 23.0415 3.30725e-05 23.2073 3.30725e-05H26.4012C26.9942 -0.00132899 27.5781 0.145515 28.0991 0.427048C28.62 0.708581 29.0613 1.11576 29.3824 1.6111L33.8771 8.51095C33.9391 8.60444 33.9744 8.71295 33.9791 8.82484C33.9838 8.93672 33.9577 9.04777 33.9038 9.14608C33.8498 9.2444 33.7699 9.32626 33.6726 9.38291C33.5754 9.43956 33.4644 9.46885 33.3517 9.46765ZM23.8328 8.22518H32.2009L28.3316 2.28618C28.1239 1.9653 27.8381 1.70153 27.5008 1.51914C27.1634 1.33675 26.7853 1.24162 26.4012 1.2425H23.8328V8.22518Z" fill="#DC2F2F"/>
<path d="M11.3368 5.77751H4.79908C4.6332 5.77751 4.47412 5.71206 4.35684 5.59556C4.23955 5.47905 4.17365 5.32104 4.17365 5.15628C4.17365 4.99152 4.23955 4.8335 4.35684 4.717C4.47412 4.6005 4.6332 4.53504 4.79908 4.53504H11.3368C11.5027 4.53504 11.6618 4.6005 11.7791 4.717C11.8964 4.8335 11.9622 4.99152 11.9622 5.15628C11.9622 5.32104 11.8964 5.47905 11.7791 5.59556C11.6618 5.71206 11.5027 5.77751 11.3368 5.77751Z" fill="#DC2F2F"/>
<path d="M8.39317 10.2835H0.625423C0.45955 10.2835 0.300472 10.2181 0.183182 10.1016C0.0658926 9.98508 0 9.82706 0 9.6623C0 9.49754 0.0658926 9.33952 0.183182 9.22302C0.300472 9.10652 0.45955 9.04107 0.625423 9.04107H8.39317C8.55904 9.04107 8.71812 9.10652 8.83541 9.22302C8.9527 9.33952 9.01859 9.49754 9.01859 9.6623C9.01859 9.82706 8.9527 9.98508 8.83541 10.1016C8.71812 10.2181 8.55904 10.2835 8.39317 10.2835Z" fill="#DC2F2F"/>
<path d="M7.67602 14.0524H3.01037C2.84449 14.0524 2.68542 13.9869 2.56813 13.8704C2.45084 13.7539 2.38494 13.5959 2.38494 13.4311C2.38494 13.2664 2.45084 13.1083 2.56813 12.9918C2.68542 12.8753 2.84449 12.8099 3.01037 12.8099H7.67602C7.84189 12.8099 8.00097 12.8753 8.11826 12.9918C8.23555 13.1083 8.30144 13.2664 8.30144 13.4311C8.30144 13.5959 8.23555 13.7539 8.11826 13.8704C8.00097 13.9869 7.84189 14.0524 7.67602 14.0524Z" fill="#DC2F2F"/>
</svg>
